<svg xmlns="http://www.w3.org/2000/svg" width="1400" height="560" viewBox="0 0 1400 560" role="img" aria-labelledby="title desc">
  <title id="title">Meerkat marquee promo tile</title>
  <desc id="desc">Wide Meerkat promotional image for the Chrome Web Store.</desc>
  <rect width="1400" height="560" fill="#0f766e"/>
  <rect x="870" y="72" width="430" height="416" rx="22" fill="#ffffff" stroke="#d0d7de" stroke-width="2"/>
  <text x="910" y="126" fill="#24292f" font-family="-apple-system, BlinkMacSystemFont, Segoe UI, Arial, sans-serif" font-size="28" font-weight="800">Author statistics</text>
  <text x="910" y="180" fill="#0969da" font-family="-apple-system, BlinkMacSystemFont, Segoe UI, Arial, sans-serif" font-size="26">@contributor</text>
  <rect x="1162" y="152" width="96" height="38" rx="19" fill="#dafbe1" stroke="#7ee09b" stroke-width="2"/>
  <text x="1210" y="178" fill="#116329" font-family="-apple-system, BlinkMacSystemFont, Segoe UI, Arial, sans-serif" font-size="21" font-weight="800" text-anchor="middle">Trusted</text>
  <rect x="910" y="212" width="348" height="58" rx="10" fill="#dafbe1"/>
  <circle cx="936" cy="241" r="4.5" fill="#116329"/>
  <text x="956" y="249" fill="#116329" font-family="-apple-system, BlinkMacSystemFont, Segoe UI, Arial, sans-serif" font-size="23">Merged 42 PRs in this repo</text>
  <g font-family="-apple-system, BlinkMacSystemFont, Segoe UI, Arial, sans-serif" font-size="22">
    <line x1="910" y1="304" x2="1258" y2="304" stroke="#d0d7de"/>
    <text x="910" y="340" fill="#59636f">Repo PRs</text><text x="1258" y="340" fill="#0969da" font-weight="800" text-anchor="end">48</text>
    <line x1="910" y1="360" x2="1258" y2="360" stroke="#d0d7de"/>
    <text x="910" y="396" fill="#59636f">Merged in repo</text><text x="1258" y="396" fill="#0969da" font-weight="800" text-anchor="end">42</text>
    <line x1="910" y1="416" x2="1258" y2="416" stroke="#d0d7de"/>
    <text x="910" y="452" fill="#59636f">All PRs in 48h</text><text x="1258" y="452" fill="#0969da" font-weight="800" text-anchor="end">1</text>
  </g>

  <circle cx="216" cy="220" r="94" fill="#f5c878"/>
  <path d="M151 211c-23-18-25-46-8-68 24 7 40 25 45 55Z" fill="#8f4f24"/>
  <path d="M281 211c23-18 25-46 8-68-24 7-40 25-45 55Z" fill="#8f4f24"/>
  <ellipse cx="183" cy="229" rx="30" ry="34" fill="#5a321f"/>
  <ellipse cx="249" cy="229" rx="30" ry="34" fill="#5a321f"/>
  <circle cx="187" cy="227" r="9" fill="#111827"/>
  <circle cx="245" cy="227" r="9" fill="#111827"/>
  <path d="M203 258c4-8 9-12 14-12s10 4 14 12c-4 8-9 12-14 12s-10-4-14-12Z" fill="#3b2418"/>
  <path d="M171 289c26 25 70 25 96 0" fill="none" stroke="#6b3e22" stroke-width="9" stroke-linecap="round"/>
  <path d="M142 374c9-72 33-110 75-110s66 38 75 110c-21 17-47 26-75 26s-54-9-75-26Z" fill="#c98136"/>
  <path d="M282 140l18 18 45-52" fill="none" stroke="#a7f3d0" stroke-width="18" stroke-linecap="round" stroke-linejoin="round"/>

  <text x="394" y="218" fill="#ffffff" font-family="-apple-system, BlinkMacSystemFont, Segoe UI, Arial, sans-serif" font-size="82" font-weight="900">Meerkat</text>
  <text x="400" y="284" fill="#ccfbf1" font-family="-apple-system, BlinkMacSystemFont, Segoe UI, Arial, sans-serif" font-size="32" font-weight="650">Spot suspicious PRs faster</text>
  <text x="400" y="334" fill="#ccfbf1" font-family="-apple-system, BlinkMacSystemFont, Segoe UI, Arial, sans-serif" font-size="26">Repository-first author history</text>
  <text x="400" y="374" fill="#ccfbf1" font-family="-apple-system, BlinkMacSystemFont, Segoe UI, Arial, sans-serif" font-size="26">for GitHub maintainers</text>
</svg>
