<svg xmlns="http://www.w3.org/2000/svg" viewBox="0 0 128 128" role="img" aria-labelledby="title desc">
  <title id="title">Meerkat icon</title>
  <desc id="desc">A watchful meerkat badge for a GitHub pull request safety extension.</desc>
  <defs>
    <linearGradient id="badge" x1="18" y1="10" x2="110" y2="118" gradientUnits="userSpaceOnUse">
      <stop offset="0" stop-color="#0f766e"/>
      <stop offset="1" stop-color="#115e59"/>
    </linearGradient>
    <linearGradient id="fur" x1="42" y1="26" x2="86" y2="110" gradientUnits="userSpaceOnUse">
      <stop offset="0" stop-color="#f5c878"/>
      <stop offset="1" stop-color="#c98136"/>
    </linearGradient>
  </defs>

  <rect x="8" y="8" width="112" height="112" rx="26" fill="url(#badge)"/>
  <path d="M38 104c2-26 8-45 26-45s24 19 26 45c-7 6-16 10-26 10s-19-4-26-10Z" fill="#b66c2e"/>
  <path d="M43 94c3-21 9-33 21-33s18 12 21 33c-6 4-13 7-21 7s-15-3-21-7Z" fill="#e0a34f"/>

  <path d="M40 53c-9-6-12-16-7-25 9 2 15 8 17 18Z" fill="#8f4f24"/>
  <path d="M88 53c9-6 12-16 7-25-9 2-15 8-17 18Z" fill="#8f4f24"/>
  <path d="M43 48c-4-3-6-7-5-12 4 2 7 5 9 10Z" fill="#f0b862"/>
  <path d="M85 48c4-3 6-7 5-12-4 2-7 5-9 10Z" fill="#f0b862"/>

  <path d="M34 61c0-22 12-39 30-39s30 17 30 39c0 21-13 36-30 36S34 82 34 61Z" fill="url(#fur)"/>
  <path d="M47 73c5 6 10 9 17 9s12-3 17-9c-2 12-8 19-17 19s-15-7-17-19Z" fill="#f4d093"/>
  <path d="M50 44c4-6 8-9 14-9s10 3 14 9c-4-2-9-3-14-3s-10 1-14 3Z" fill="#8f4f24" opacity=".35"/>

  <ellipse cx="51" cy="59" rx="12" ry="14" fill="#5a321f"/>
  <ellipse cx="77" cy="59" rx="12" ry="14" fill="#5a321f"/>
  <circle cx="53" cy="58" r="4" fill="#111827"/>
  <circle cx="75" cy="58" r="4" fill="#111827"/>
  <circle cx="54.5" cy="56.5" r="1.4" fill="#ffffff"/>
  <circle cx="76.5" cy="56.5" r="1.4" fill="#ffffff"/>

  <path d="M58 70c1-3 3-5 6-5s5 2 6 5c-1 3-3 5-6 5s-5-2-6-5Z" fill="#3b2418"/>
  <path d="M64 74v5" stroke="#6b3e22" stroke-width="3" stroke-linecap="round"/>
  <path d="M56 82c4 4 12 4 16 0" fill="none" stroke="#6b3e22" stroke-width="3" stroke-linecap="round"/>

  <path d="M96 31l6 6 13-15" fill="none" stroke="#a7f3d0" stroke-width="8" stroke-linecap="round" stroke-linejoin="round"/>
</svg>
